<svg width="40" height="40" viewBox="0 0 40 40" fill="none" xmlns="http://www.w3.org/2000/svg">
<path d="M18.3469 18.3938V11.9479H21.5698V18.3938H28.0157V21.6167H21.5698V28.0626H18.3469V21.6167H11.9011V18.3938H18.3469ZM19.9584 36.1199C11.0585 36.1199 3.84375 28.905 3.84375 20.0053C3.84375 11.1054 11.0585 3.89062 19.9584 3.89062C28.8582 3.89062 36.073 11.1054 36.073 20.0053C36.073 28.905 28.8582 36.1199 19.9584 36.1199ZM19.9584 32.897C27.0783 32.897 32.8501 27.1252 32.8501 20.0053C32.8501 12.8854 27.0783 7.11355 19.9584 7.11355C12.8385 7.11355 7.06668 12.8854 7.06668 20.0053C7.06668 27.1252 12.8385 32.897 19.9584 32.897Z" fill="#64748B"/>
</svg>
