<svg width="26" height="26" viewBox="0 0 26 26" fill="none" xmlns="http://www.w3.org/2000/svg">
<path d="M6.6849 19.5C7.13104 18.2377 8.33489 17.3333 9.74996 17.3333C11.165 17.3333 12.3689 18.2377 12.815 19.5H23.8333V21.6666H12.815C12.3689 22.9289 11.165 23.8333 9.74996 23.8333C8.33489 23.8333 7.13104 22.9289 6.6849 21.6666H2.16663V19.5H6.6849ZM13.1849 11.9166C13.631 10.6543 14.8349 9.74996 16.25 9.74996C17.665 9.74996 18.8689 10.6543 19.315 11.9166H23.8333V14.0833H19.315C18.8689 15.3456 17.665 16.25 16.25 16.25C14.8349 16.25 13.631 15.3456 13.1849 14.0833H2.16663V11.9166H13.1849ZM6.6849 4.33329C7.13104 3.071 8.33489 2.16663 9.74996 2.16663C11.165 2.16663 12.3689 3.071 12.815 4.33329H23.8333V6.49996H12.815C12.3689 7.76225 11.165 8.66663 9.74996 8.66663C8.33489 8.66663 7.13104 7.76225 6.6849 6.49996H2.16663V4.33329H6.6849Z" fill="#64748B"/>
</svg>
