<svg width="15" height="15" viewBox="0 0 15 15" fill="none" xmlns="http://www.w3.org/2000/svg">
<g opacity="0.5">
<path d="M0.742188 7.5C1.33001 4.29985 4.13374 1.875 7.50385 1.875C10.8739 1.875 13.6777 4.29985 14.2655 7.5C13.6777 10.7001 10.8739 13.125 7.50385 13.125C4.13374 13.125 1.33001 10.7001 0.742188 7.5ZM7.50385 10.625C9.22972 10.625 10.6288 9.22587 10.6288 7.5C10.6288 5.77411 9.22972 4.375 7.50385 4.375C5.77794 4.375 4.37882 5.77411 4.37882 7.5C4.37882 9.22587 5.77794 10.625 7.50385 10.625ZM7.50385 9.375C6.46829 9.375 5.62882 8.53556 5.62882 7.5C5.62882 6.46444 6.46829 5.625 7.50385 5.625C8.53935 5.625 9.37885 6.46444 9.37885 7.5C9.37885 8.53556 8.53935 9.375 7.50385 9.375Z" fill="#64748B"/>
</g>
</svg>
