<svg width="15" height="16" viewBox="0 0 15 16" fill="none" xmlns="http://www.w3.org/2000/svg">
<path d="M13.125 10.7625V12.9726C13.125 13.3007 12.8713 13.5729 12.5441 13.5961C12.2707 13.6154 12.0477 13.625 11.875 13.625C6.35212 13.625 1.875 9.14788 1.875 3.625C1.875 3.45232 1.88466 3.22929 1.90397 2.95594C1.92711 2.62868 2.19934 2.375 2.52741 2.375H4.73756C4.89799 2.375 5.03235 2.49651 5.04846 2.65613C5.06292 2.79942 5.07636 2.91446 5.08879 3.00126C5.21522 3.8842 5.47346 4.7246 5.84294 5.50189C5.90224 5.62666 5.86357 5.77599 5.75116 5.85629L4.40222 6.81988C5.22345 8.73819 6.76181 10.2766 8.68012 11.0978L9.64194 9.75119C9.72325 9.63744 9.87437 9.59831 10.0006 9.65825C10.7779 10.0274 11.6182 10.2854 12.501 10.4115C12.5872 10.4239 12.7016 10.4372 12.8439 10.4516C13.0035 10.4677 13.125 10.6021 13.125 10.7625Z" fill="#64748B"/>
</svg>
