<svg width="20" height="20" viewBox="0 0 20 20" fill="none" xmlns="http://www.w3.org/2000/svg">
<path d="M15.0271 13.8474L18.5961 17.4163L17.4176 18.5948L13.8486 15.0259C12.5654 16.0526 10.938 16.6667 9.16797 16.6667C5.02797 16.6667 1.66797 13.3067 1.66797 9.16675C1.66797 5.02675 5.02797 1.66675 9.16797 1.66675C13.308 1.66675 16.668 5.02675 16.668 9.16675C16.668 10.9367 16.0538 12.5642 15.0271 13.8474ZM13.3552 13.2291C14.3742 12.1789 15.0013 10.7464 15.0013 9.16675C15.0013 5.94383 12.3909 3.33341 9.16797 3.33341C5.94505 3.33341 3.33464 5.94383 3.33464 9.16675C3.33464 12.3897 5.94505 15.0001 9.16797 15.0001C10.7476 15.0001 12.1801 14.373 13.2303 13.354L13.3552 13.2291Z" fill="#64748B"/>
</svg>
